<?xml version="1.0" standalone="no"?>
<!DOCTYPE svg PUBLIC "-//W3C//DTD SVG 20010904//EN"
 "http://www.w3.org/TR/2001/REC-SVG-20010904/DTD/svg10.dtd">
<svg version="1.0" xmlns="http://www.w3.org/2000/svg"
 width="1109.000000pt" height="1044.000000pt" viewBox="0 0 1109.000000 1044.000000"
 preserveAspectRatio="xMidYMid meet">
<metadata>
Created by potrace 1.16, written by Peter Selinger 2001-2019
</metadata>
<g transform="translate(0.000000,1044.000000) scale(0.100000,-0.100000)"
fill="#000000" stroke="none">
<path d="M5150 10429 c-256 -22 -563 -70 -798 -125 -124 -29 -414 -112 -422
-121 -3 -3 5 -3 18 0 22 5 22 3 22 -80 0 -77 2 -84 18 -78 9 3 78 24 152 45
745 213 1533 254 2300 119 1349 -237 2564 -1039 3325 -2194 471 -715 739
-1499 816 -2380 14 -167 14 -623 0 -790 -34 -391 -100 -735 -213 -1110 -11
-38 -23 -63 -26 -55 -2 8 -11 22 -19 32 -13 14 -13 19 0 40 24 38 36 108 35
208 0 110 -16 183 -47 213 -21 22 -23 22 -549 24 -290 1 -529 2 -532 2 -3 1
-5 181 -5 401 l0 400 445 0 c386 0 449 2 468 15 36 26 52 104 49 240 -3 135
-19 186 -65 203 -17 7 -191 10 -462 9 l-435 0 0 346 0 347 526 0 c507 0 526 1
546 20 36 32 47 87 47 220 1 135 -17 210 -54 230 -25 14 -1502 13 -1550 0 -45
-12 -97 -65 -110 -111 -7 -22 -9 -509 -8 -1359 3 -1266 4 -1326 21 -1358 11
-18 30 -40 43 -49 31 -20 30 -25 -5 -46 -18 -11 -36 -34 -47 -62 -15 -42 -16
-79 -10 -418 4 -205 9 -389 12 -409 l6 -38 272 0 c149 0 276 4 281 8 16 11 17
24 22 257 2 121 6 230 9 242 l4 23 490 0 c270 0 490 -3 490 -6 0 -15 -116
-267 -173 -374 -248 -473 -516 -844 -872 -1209 -638 -653 -1412 -1111 -2280
-1350 -886 -243 -1851 -237 -2745 19 -74 21 -143 42 -152 45 -16 6 -18 -1 -18
-78 0 -83 0 -85 -22 -80 -13 3 -21 3 -18 0 8 -9 298 -92 422 -121 401 -94 768
-136 1203 -136 273 0 405 8 640 36 885 106 1766 460 2471 991 l89 67 762 1
c717 0 762 1 781 18 29 26 43 97 43 207 0 107 -18 170 -54 189 -16 8 -171 12
-532 14 l-510 2 95 100 c138 144 394 450 427 510 6 11 48 14 185 17 148 2 180
6 194 19 21 22 42 114 50 220 6 77 4 92 -15 133 -19 38 -29 48 -64 58 -23 6
-44 13 -46 14 -2 2 13 29 32 61 78 130 218 422 298 621 250 623 369 1250 369
1942 0 349 -20 590 -76 910 -311 1781 -1536 3282 -3224 3950 -485 192 -975
304 -1525 350 -139 11 -656 11 -795 -1z"/>
<path d="M3384 6601 c-23 -10 -54 -36 -70 -57 l-29 -37 -3 -1324 c-1 -730 1
-1323 6 -1323 5 0 9 579 9 1288 0 708 3 1308 7 1333 8 53 44 94 98 112 24 9
167 12 498 11 518 -1 658 -8 773 -40 9 -3 17 -1 17 4 0 11 -104 28 -255 42
-60 5 -312 10 -560 10 -418 0 -453 -2 -491 -19z"/>
<path d="M766 2996 c-85 -267 -92 -488 -30 -879 3 -21 8 -37 10 -34 2 2 -3 57
-12 122 -8 65 -13 124 -10 131 3 7 1 16 -3 18 -5 3 -7 29 -5 58 2 29 5 105 8
168 7 128 24 230 63 368 19 67 23 98 16 114 -8 18 -13 8 -37 -66z"/>
</g>
</svg>
